<svg xmlns="http://www.w3.org/2000/svg" data-name="Layer 2" viewBox="0 0 32 40" x="0px" y="0px"><title>video</title><path d="M29,15.52a1,1,0,0,0-1,1V26.2A1.8,1.8,0,0,1,26.2,28H5.8A1.8,1.8,0,0,1,4,26.2V5.8A1.8,1.8,0,0,1,5.8,4h10.16a1,1,0,0,0,0-2H5.8A3.8,3.8,0,0,0,2,5.8V26.2A3.8,3.8,0,0,0,5.8,30H26.2A3.8,3.8,0,0,0,30,26.2V16.52A1,1,0,0,0,29,15.52Z"/><path d="M11,16v4a1,1,0,0,0,1,1h4a1,1,0,0,0,.707-.293l13-13a1,1,0,0,0,0-1.414l-4-4a1,1,0,0,0-1.414,0l-13,13A1,1,0,0,0,11,16ZM25,4.414,27.586,7,26,8.586,23.414,6Zm-12,12,9-9L24.586,10l-9,9H13Z"/><text x="0" y="47" fill="#000000" font-size="5px" font-weight="bold" font-family="'Helvetica Neue', Helvetica, Arial-Unicode, Arial, Sans-serif">Created by Ilham Fitrotul Hayat</text><text x="0" y="52" fill="#000000" font-size="5px" font-weight="bold" font-family="'Helvetica Neue', Helvetica, Arial-Unicode, Arial, Sans-serif">from the Noun Project</text></svg>