<svg xmlns="http://www.w3.org/2000/svg" viewBox="0 0 32 40" x="0px" y="0px"><title>UI glyph</title><g data-name="Layer 2"><path d="M28,5H20.9a5,5,0,0,0-9.8,0H4A1,1,0,0,0,4,7H5V27.043A3.961,3.961,0,0,0,8.957,31H23.043A3.961,3.961,0,0,0,27,27.043V7h1a1,1,0,0,0,0-2ZM16,3a3,3,0,0,1,2.816,2H13.184A3,3,0,0,1,16,3Zm9,24.043A1.959,1.959,0,0,1,23.043,29H8.957A1.959,1.959,0,0,1,7,27.043V7H25Z"/><path d="M13,12a1,1,0,0,0-1,1V23a1,1,0,0,0,2,0V13A1,1,0,0,0,13,12Z"/><path d="M19,12a1,1,0,0,0-1,1V23a1,1,0,0,0,2,0V13A1,1,0,0,0,19,12Z"/></g><text x="0" y="47" fill="#000000" font-size="5px" font-weight="bold" font-family="'Helvetica Neue', Helvetica, Arial-Unicode, Arial, Sans-serif">Created by Ilham Fitrotul Hayat</text><text x="0" y="52" fill="#000000" font-size="5px" font-weight="bold" font-family="'Helvetica Neue', Helvetica, Arial-Unicode, Arial, Sans-serif">from the Noun Project</text></svg>